<?xml version="1.0" encoding="iso-8859-1"?>
<!-- Generator: Adobe Illustrator 19.0.0, SVG Export Plug-In . SVG Version: 6.00 Build 0)  -->
<svg xmlns="http://www.w3.org/2000/svg" xmlns:xlink="http://www.w3.org/1999/xlink" version="1.1" id="Capa_1" x="0px" y="0px" viewBox="0 0 512 512" style="enable-background:new 0 0 512 512;" xml:space="preserve" width="512px" height="512px">
<g>
	<g>
		<path d="M314.516,222.243C324.72,211.482,331,196.965,331,181c0-33.084-26.916-60-60-60c-33.03,0-61,26.685-61,60    c0,15.475,6.033,30.076,17.001,41.328c-7.235,3.997-13.984,8.986-20.044,14.936C189.573,254.333,180,276.969,180,301v15    c0,8.284,6.716,15,15,15h151c8.284,0,15-6.716,15-15v-15C361,267.148,342.21,237.606,314.516,222.243z M271,151    c16.542,0,30,13.458,30,30s-13.458,30-30,30c-16.804,0-31-13.738-31-30C240,164.738,254.196,151,271,151z M210,301    c0-33.084,27.364-60,61-60c33.084,0,60,26.916,60,60H210z" fill="#FFFFFF"/>
	</g>
</g>
<g>
	<g>
		<path d="M467,60h-15V45c0-24.813-20.187-45-45-45H45C20.187,0,0,20.187,0,45v422c0,24.813,20.187,45,45,45c6.225,0,355.78,0,362,0    c24.813,0,45-20.187,45-45v-15h15c24.813,0,45-20.187,45-45c0-16.636,0-286.008,0-302C512,80.187,491.813,60,467,60z M90,60H75    c-8.284,0-15,6.716-15,15s6.716,15,15,15h15v91H75c-8.284,0-15,6.716-15,15s6.716,15,15,15h15v90H75c-8.284,0-15,6.716-15,15    s6.716,15,15,15h15v91H75c-8.284,0-15,6.716-15,15s6.716,15,15,15h15v30H45c-8.271,0-15-6.729-15-15V45c0-8.271,6.729-15,15-15h45    V60z M422,467c0,8.271-6.729,15-15,15H120v-30h15c8.284,0,15-6.716,15-15s-6.716-15-15-15h-15v-91h15c8.284,0,15-6.716,15-15    s-6.716-15-15-15h-15v-90h15c8.284,0,15-6.716,15-15s-6.716-15-15-15h-15V90h15c8.284,0,15-6.716,15-15s-6.716-15-15-15h-15V30    h287c8.271,0,15,6.729,15,15V467z M482,407c0,8.271-6.729,15-15,15h-15v-91h30V407z M482,301h-30v-90h30V301z M482,181h-30V90h15    c8.271,0,15,6.729,15,15V181z" fill="#FFFFFF"/>
	</g>
</g>
<g>
	<g>
		<path d="M346,361H195c-8.284,0-15,6.716-15,15s6.716,15,15,15h151c8.284,0,15-6.716,15-15S354.284,361,346,361z" fill="#FFFFFF"/>
	</g>
</g>
<g>
</g>
<g>
</g>
<g>
</g>
<g>
</g>
<g>
</g>
<g>
</g>
<g>
</g>
<g>
</g>
<g>
</g>
<g>
</g>
<g>
</g>
<g>
</g>
<g>
</g>
<g>
</g>
<g>
</g>
</svg>
