<?xml version="1.0" encoding="iso-8859-1"?>
<svg xmlns="http://www.w3.org/2000/svg" xmlns:xlink="http://www.w3.org/1999/xlink" version="1.1" viewBox="0 0 490 490" enable-background="new 0 0 490 490" width="512px" height="512px">
  <path d="m475,188.893h-65.001v-113.893c0-8.284-6.716-15-15-15h-379.999c-8.284,0-15,6.716-15,15v211.108c0,8.284 6.716,15 15,15h65.002v113.892c0,8.284 6.716,15 15,15h379.998c8.284,0 15-6.716 15-15v-211.107c0-8.285-6.716-15-15-15zm-394.998,15v67.215h-50.002v-181.108h349.999v98.893h-284.997c-8.284,0-15,6.715-15,15zm379.998,196.107h-349.998v-181.107h349.998v181.107zm-160.003-120.552c0-8.284 6.716-15 15-15h90.003c8.284,0 15,6.716 15,15s-6.716,15-15,15h-90.003c-8.285,0-15-6.716-15-15zm0,59.995c0-8.284 6.716-15 15-15h40.003c8.284,0 15,6.716 15,15s-6.716,15-15,15h-40.003c-8.285,0-15-6.715-15-15zm-99.996,20.005c27.572,0 50.003-22.431 50.003-50.002s-22.432-50.002-50.003-50.002c-27.571,0-50.001,22.431-50.001,50.002s22.431,50.002 50.001,50.002zm0-70.004c11.03,0 20.003,8.973 20.003,20.002s-8.974,20.002-20.003,20.002c-11.029,0-20.001-8.973-20.001-20.002s8.973-20.002 20.001-20.002z" fill="#FFFFFF"/>
</svg>
