<?xml version="1.0" encoding="iso-8859-1"?>
<!-- Generator: Adobe Illustrator 16.0.0, SVG Export Plug-In . SVG Version: 6.00 Build 0)  -->
<!DOCTYPE svg PUBLIC "-//W3C//DTD SVG 1.1//EN" "http://www.w3.org/Graphics/SVG/1.1/DTD/svg11.dtd">
<svg xmlns="http://www.w3.org/2000/svg" xmlns:xlink="http://www.w3.org/1999/xlink" version="1.1" id="Capa_1" x="0px" y="0px" width="512px" height="512px" viewBox="0 0 522.394 522.393" style="enable-background:new 0 0 522.394 522.393;" xml:space="preserve">
<g>
	<path d="M517.323,150.292L394.464,62.97c-2.319-1.646-5.082-2.469-7.83-2.473c-2.727-0.004-5.474,0.809-7.783,2.426   l-118.423,83.013l-115.04-82.917c-2.342-1.695-5.149-2.529-7.936-2.521c-2.71,0.008-5.444,0.814-7.743,2.426L5.136,150.245   C1.916,152.498,0,156.184,0,160.116v289.723c0,4.499,2.501,8.619,6.493,10.698c1.748,0.911,3.658,1.36,5.562,1.36   c2.431,0,4.853-0.736,6.919-2.187l118.422-83.012l115.042,82.916c2.092,1.515,4.565,2.281,7.048,2.281c0.289,0,1.425,0,1.711,0   c2.432,0,4.854-0.736,6.92-2.187l118.463-83.041l116.774,82.995c2.081,1.479,4.525,2.231,6.983,2.231   c1.89,0,3.787-0.442,5.53-1.345c4.006-2.072,6.525-6.202,6.525-10.715v-289.72C522.396,156.214,520.506,152.551,517.323,150.292z    M124.571,356.249l-100.46,70.414V166.386L124.57,95.969L124.571,356.249L124.571,356.249z M247.432,426.288l-97.04-69.938V96.347   l97.04,69.938V426.288z M373.713,356.249l-100.46,70.414V166.386l100.46-70.417V356.249z M498.284,426.481l-98.75-70.184V96.153   l98.75,70.185V426.481z" fill="#ffffff"/>
</g>
<g>
</g>
<g>
</g>
<g>
</g>
<g>
</g>
<g>
</g>
<g>
</g>
<g>
</g>
<g>
</g>
<g>
</g>
<g>
</g>
<g>
</g>
<g>
</g>
<g>
</g>
<g>
</g>
<g>
</g>
</svg>
