<?xml version="1.0" encoding="iso-8859-1"?>
<!-- Generator: Adobe Illustrator 19.0.0, SVG Export Plug-In . SVG Version: 6.00 Build 0)  -->
<svg xmlns="http://www.w3.org/2000/svg" xmlns:xlink="http://www.w3.org/1999/xlink" version="1.1" id="Capa_1" x="0px" y="0px" viewBox="0 0 512 512" style="enable-background:new 0 0 512 512;" xml:space="preserve" width="512px" height="512px">
<g>
	<g>
		<g>
			<path d="M111,238h290c11.046,0,20-8.954,20-20s-8.954-20-20-20H111c-11.046,0-20,8.954-20,20S99.954,238,111,238z" fill="#FFFFFF"/>
			<path d="M111,146h290c11.046,0,20-8.954,20-20c0-11.046-8.954-20-20-20H111c-11.046,0-20,8.954-20,20S99.954,146,111,146z" fill="#FFFFFF"/>
			<path d="M111,330h290c11.046,0,20-8.954,20-20c0-11.046-8.954-20-20-20H111c-11.046,0-20,8.954-20,20     C91,321.046,99.954,330,111,330z" fill="#FFFFFF"/>
			<path d="M492,0H20C8.954,0,0,8.954,0,20v396c0,11.046,8.954,20,20,20h176.977l42.114,66.68c3.665,5.802,10.047,9.32,16.91,9.32     c6.863,0,13.245-3.519,16.91-9.32L315.023,436H492c11.046,0,20-8.954,20-20V20C512,8.954,503.046,0,492,0z M472,396H304     c-6.862,0-13.245,3.519-16.91,9.32L256,454.546l-31.09-49.226c-3.665-5.802-10.047-9.32-16.91-9.32H40V40h432V396z" fill="#FFFFFF"/>
		</g>
	</g>
</g>
<g>
</g>
<g>
</g>
<g>
</g>
<g>
</g>
<g>
</g>
<g>
</g>
<g>
</g>
<g>
</g>
<g>
</g>
<g>
</g>
<g>
</g>
<g>
</g>
<g>
</g>
<g>
</g>
<g>
</g>
</svg>
