<?xml version="1.0" encoding="iso-8859-1"?>
<!-- Generator: Adobe Illustrator 19.0.0, SVG Export Plug-In . SVG Version: 6.00 Build 0)  -->
<svg xmlns="http://www.w3.org/2000/svg" xmlns:xlink="http://www.w3.org/1999/xlink" version="1.1" id="Capa_1" x="0px" y="0px" viewBox="0 0 512 512" style="enable-background:new 0 0 512 512;" xml:space="preserve" width="512px" height="512px">
<g>
	<g>
		<path d="M182.891,129.531L220,110l-37.109-19.531L205.263,55l-41.903,1.64L165,14.737l-35.469,22.372L110,0L90.469,37.109    L55,14.737l1.64,41.903L14.737,55l22.372,35.469L0,110l37.109,19.531L14.737,165l41.903-1.64L55,205.263l35.469-22.372L110,220    l19.531-37.109L165,205.263l-1.64-41.903l41.903,1.64L182.891,129.531z M110,165c-30.376,0-55-24.624-55-55    c0-30.376,24.624-55,55-55c30.376,0,55,24.624,55,55S140.376,165,110,165z" fill="#ffffff"/>
	</g>
</g>
<g>
	<g>
		<path d="M512,302v-15c0-80.407-61.545-146.702-140-154.272V102h-30v30.728c-78.455,7.57-140,73.865-140,154.272v15h140v90.008    c-0.226-0.001-0.446-0.008-0.674-0.008c-26.079,0-40.06,9.831-51.294,17.729C279.901,416.853,272.581,422,255.993,422    c-16.587,0-23.907-5.147-34.038-12.271C210.722,401.831,196.741,392,170.663,392c-26.079,0-40.06,9.831-51.294,17.729    C109.238,416.853,101.918,422,85.331,422c-16.587,0-23.906-5.147-34.037-12.27C40.06,401.831,26.079,392,0,392v30    c16.587,0,23.907,5.147,34.038,12.271C45.271,442.169,59.252,452,85.331,452c26.079,0,40.06-9.831,51.294-17.729    c10.13-7.124,17.45-12.271,34.038-12.271c16.587,0,23.906,5.147,34.037,12.27c11.234,7.899,25.215,17.73,51.293,17.73    s40.06-9.831,51.294-17.729C317.418,427.147,324.738,422,341.326,422c0.232,0,0.445,0.011,0.674,0.013V482H0v30h512v-30H372    v-50.078c1.099,0.755,2.213,1.537,3.367,2.348c11.235,7.899,25.216,17.73,51.296,17.73c26.08,0,40.062-9.831,51.296-17.729    C488.091,427.147,495.411,422,512,422v-30c-26.08,0-40.062,9.831-51.296,17.729C450.572,416.853,443.252,422,426.663,422    c-16.589,0-23.909-5.147-34.041-12.271c-5.74-4.036-12.201-8.573-20.622-12.048V302H512z M232.895,272    c7.431-61.882,60.253-110,124.105-110s116.674,48.118,124.105,110H232.895z" fill="#ffffff"/>
	</g>
</g>
<g>
</g>
<g>
</g>
<g>
</g>
<g>
</g>
<g>
</g>
<g>
</g>
<g>
</g>
<g>
</g>
<g>
</g>
<g>
</g>
<g>
</g>
<g>
</g>
<g>
</g>
<g>
</g>
<g>
</g>
</svg>
