<?xml version="1.0" encoding="iso-8859-1"?>
<!-- Generator: Adobe Illustrator 19.0.0, SVG Export Plug-In . SVG Version: 6.00 Build 0)  -->
<svg xmlns="http://www.w3.org/2000/svg" xmlns:xlink="http://www.w3.org/1999/xlink" version="1.1" id="Capa_1" x="0px" y="0px" viewBox="0 0 512 512" style="enable-background:new 0 0 512 512;" xml:space="preserve" width="512px" height="512px">
<g>
	<g>
		<path d="M472,0H92c-8.284,0-15,6.716-15,15v56H40c-8.284,0-15,6.716-15,15s6.716,15,15,15h37v83.333H40c-8.284,0-15,6.716-15,15    s6.716,15,15,15h37v83.334H40c-8.284,0-15,6.716-15,15s6.716,15,15,15h37V411H40c-8.284,0-15,6.716-15,15s6.716,15,15,15h37v56    c0,8.284,6.716,15,15,15h380c8.284,0,15-6.716,15-15V15C487,6.716,480.284,0,472,0z M457,482H107v-41h15c8.284,0,15-6.716,15-15    s-6.716-15-15-15h-15v-83.333h15c8.284,0,15-6.716,15-15s-6.716-15-15-15h-15v-83.334h15c8.284,0,15-6.716,15-15s-6.716-15-15-15    h-15V101h15c8.284,0,15-6.716,15-15s-6.716-15-15-15h-15V30h350V482z" fill="#FFFFFF"/>
	</g>
</g>
<g>
	<g>
		<path d="M393.127,335.169l-54.465-36.59v-8.737c25.044-14.269,41.257-40.008,43.041-69.298l2.101-34.466    c3.001-49.262-36.007-91.084-85.703-91.084H293.9c-49.337,0-88.726,41.462-85.703,91.084l2.101,34.466    c1.785,29.29,17.998,55.029,43.041,69.298v8.737l-54.464,36.59c-12.465,8.373-19.906,22.337-19.906,37.354v29.483    c0,8.284,6.716,15,15,15h204.064c8.284,0,15-6.716,15-15v-29.483C413.032,357.506,405.591,343.542,393.127,335.169z     M383.033,387.006L383.033,387.006H208.968v-14.483c0-5.006,2.48-9.66,6.636-12.451l61.1-41.048    c4.147-2.786,6.635-7.455,6.635-12.451v-26.016c0-6.019-3.598-11.455-9.138-13.807c-19.649-8.344-32.661-26.748-33.958-48.03    l-2.101-34.466c-1.953-32.039,23.413-59.26,55.758-59.26h4.201c32.099,0,57.726,26.975,55.758,59.26l-2.101,34.466    c-1.296,21.282-14.308,39.687-33.958,48.03c-5.54,2.352-9.138,7.788-9.138,13.807v26.016c0,4.996,2.487,9.665,6.635,12.451    l61.101,41.048c4.154,2.791,6.635,7.445,6.635,12.451V387.006z" fill="#FFFFFF"/>
	</g>
</g>
<g>
</g>
<g>
</g>
<g>
</g>
<g>
</g>
<g>
</g>
<g>
</g>
<g>
</g>
<g>
</g>
<g>
</g>
<g>
</g>
<g>
</g>
<g>
</g>
<g>
</g>
<g>
</g>
<g>
</g>
</svg>
